<svg width="274" height="88" viewBox="0 0 274 88" fill="none" xmlns="http://www.w3.org/2000/svg">
  <path 
    d="
      M 0 58.2968
      C 0 42.0045 12.983 29.0215 29.0208 29.0215
      C 39.4581 29.0215 49.1317 34.622 54.4776 43.5319
      C 56.005 46.3321 54.9868 49.8961 52.4411 51.4235
      C 49.6408 52.9509 46.0769 51.9326 44.5495 49.387
      C 41.4946 43.7864 35.6396 40.4771 29.2754 40.4771
      C 19.6018 40.4771 11.4556 48.3687 11.4556 58.2968
      C 11.4556 67.9704 19.6018 76.1166 29.2754 76.1166
      C 35.385 76.1166 40.9855 73.0618 44.2949 67.9704
      C 46.0769 65.1702 49.6408 64.6611 52.4411 66.1885
      C 55.2413 67.9704 55.7505 71.5344 53.9685 74.3346
      C 48.6225 82.7354 39.4581 87.8268 29.2754 87.8268
      C 12.983 87.5722 0 74.3347 0 58.2968
      Z" 
    fill="white"
  />
  <path 
    d="
      M 60.5874 58.2968
      C 60.5874 42.0045 73.825 29.0215 89.8628 29.0215
      C 106.155 29.0215 119.138 42.0045 119.138 58.2968
      C 119.138 74.3347 106.155 87.5722 89.8628 87.5722
      C 73.5704 87.3176 60.5874 74.3347 60.5874 58.2968
      Z
      M 72.043 58.2968C72.043 67.9704 79.9346 76.1166 89.8628 76.1166
      C 99.5364 76.1166 107.683 67.9704 107.683 58.2968
      C 107.683 48.6232 99.791 40.4771 89.8628 40.4771
      C 79.9346 40.4771 72.043 48.3687 72.043 58.2968
      Z" 
    fill="white"
  />
  <path 
    d="
      M 207.474 52.9509
      C 207.474 53.2055 207.474 53.2055 207.474 53.46
      V 81.7171C207.474 85.0265 204.674 87.5722 201.619 87.5722
      C 198.564 87.5722 196.018 85.0265 196.018 81.7171
      V 53.46
      C 196.018 53.2055 196.018 53.2055 196.018 52.9509
      C 196.018 52.9509 196.018 52.6963 196.018 52.4418
      C 196.018 45.823 190.672 40.7316 184.054 40.7316
      C 177.435 40.7316 172.089 46.0776 172.089 52.4418
      V 81.7171
      C 172.089 85.0265 169.543 87.5722 166.488 87.5722
      C 163.434 87.5722 160.633 85.0265 160.633 81.7171
      V 52.4418
      C 160.633 45.823 155.287 40.7316 148.923 40.7316
      C 142.304 40.7316 136.959 46.0776 136.959 52.4418
      V 81.7171
      C 136.959 85.0265 134.413 87.5722 131.358 87.5722
      C 128.049 87.5722 125.503 85.0265 125.503 81.7171
      V 52.4418
      C 125.503 39.7133 135.94 29.0215 148.923 29.0215C155.797 29.0215 162.161 32.0763 166.488 37.1677
      C 170.816 32.0763 177.18 29.0215 184.054 29.0215C197.037 29.0215 207.474 39.4588 207.474 52.4418
      C 207.474 52.6963 207.474 52.9509 207.474 52.9509
      Z" 
    fill="white"
  />
  <path 
    d="
      M 273.151 58.0416
      C 273.151 74.0794 260.168 87.3169 243.876 87.3169
      C 227.838 87.3169 214.601 74.0794 214.601 58.0416
      V 5.6005
      C 214.601 2.54568 217.146 0 220.456 0
      C 223.51 0 226.056 2.54568 226.056 5.6005
      V 34.6213C230.893 30.8028 237.003 28.7662 243.876 28.7662
      C 260.168 28.7662 273.151 41.7492 273.151 58.0416
      Z
      M 261.696 58.0416
      C 261.696 48.368 253.804 40.2218 243.876 40.2218
      C 234.202 40.2218 226.056 48.1134 226.056 57.787
      C 226.056 67.4606 233.948 75.6068 243.876 75.6068
      C 253.804 75.6068 261.696 67.7152 261.696 58.0416
      Z" 
    fill="white"
  />
</svg>